<svg xmlns="http://www.w3.org/2000/svg" width="30" height="30" viewBox="0 0 30 30">
  <defs>
    <linearGradient id="bitbucket-a" x1="104.898%" x2="46.549%" y1="34.588%" y2="63.881%">
      <stop offset="7%" stop-color="#FFF" stop-opacity=".4"/>
      <stop offset="100%" stop-color="#FFF"/>
    </linearGradient>
  </defs>
  <g fill="none" fill-rule="evenodd">
    <path fill="url(#bitbucket-a)" fill-rule="nonzero" d="M28.4285714,10.952381 L19.4761905,10.952381 L17.952381,19.7142857 L11.7619048,19.7142857 L4.47619048,28.3809524 C4.71428571,28.5714286 5,28.7142857 5.33333333,28.7142857 L24.7142857,28.7142857 C25.1904762,28.7142857 25.5714286,28.3809524 25.6666667,27.9047619 L28.4285714,10.952381 Z"/>
    <path fill="#FFF" fill-rule="nonzero" d="M0.952380952,2 C0.428571429,2 -2.48689958e-14,2.42857143 -2.48689958e-14,2.95238095 C-2.48689958e-14,3 -2.48689958e-14,3.04761905 -2.48689958e-14,3.0952381 L4.04761905,27.6190476 C4.0952381,27.9047619 4.23809524,28.1904762 4.47619048,28.3809524 L4.47619048,28.3809524 C4.71428571,28.5714286 5,28.7142857 5.33333333,28.7142857 L12.8571429,19.7142857 L11.8095238,19.7142857 L10.1428571,10.952381 L28.4285714,10.952381 L29.7142857,3.0952381 C29.8095238,2.57142857 29.4285714,2.0952381 28.9047619,2 C28.8571429,2 28.8095238,2 28.7619048,2 L0.952380952,2 Z"/>
  </g>
</svg>
