<svg xmlns="http://www.w3.org/2000/svg" xmlns:xlink="http://www.w3.org/1999/xlink" width="30" height="30" viewBox="0 0 30 30">
  <defs>
    <path id="github-a" d="M14.9722314,2.30926389e-14 C23.2408264,2.30926389e-14 29.9442149,6.87330508 29.9442149,15.3526271 C29.9442149,22.1336441 25.6596694,27.8865254 19.7139669,29.9188983 C18.9550413,30.069661 18.6855372,29.5909322 18.6855372,29.1823729 C18.6855372,28.6764407 18.7028926,27.0231356 18.7028926,24.9691525 C18.7028926,23.5367797 18.2243802,22.6024576 17.6873554,22.1260169 C21.0213223,21.7459322 24.5238843,20.4475424 24.5238843,14.5507627 C24.5238843,12.8745763 23.9429752,11.505 22.9829752,10.4298305 C23.1384298,10.0428814 23.651157,8.48161017 22.8361983,6.36686441 C22.8361983,6.36686441 21.5806612,5.95423729 18.7229752,7.94059322 C17.5264463,7.60042373 16.2446281,7.42983051 14.9722314,7.42398305 C13.6998347,7.42983051 12.4190083,7.60042373 11.2247107,7.94059322 C8.36355372,5.95423729 7.10628099,6.36686441 7.10628099,6.36686441 C6.29330579,8.48161017 6.80578512,10.0428814 6.96123967,10.4298305 C6.00347107,11.505 5.41859504,12.8745763 5.41859504,14.5507627 C5.41859504,20.4335593 8.91446281,21.75 12.24,22.1382203 C11.8118182,22.5213559 11.4238017,23.1991525 11.2894215,24.1911864 C10.4350413,24.5834746 8.26785124,25.2620339 6.93247934,22.9149153 C6.93247934,22.9149153 6.14082645,21.4408475 4.63735537,21.3327966 C4.63735537,21.3327966 3.17652893,21.3132203 4.53495868,22.2661017 C4.53495868,22.2661017 5.51628099,22.7379661 6.19735537,24.5125424 C6.19735537,24.5125424 7.07628099,27.2527119 11.2415702,26.3239831 C11.2480165,27.6068644 11.2619008,28.8162712 11.2619008,29.1823729 C11.2619008,29.5878814 10.9871901,30.0630508 10.2389256,29.9209322 C4.29,27.8908475 7.63833441e-14,22.1359322 7.63833441e-14,15.3526271 C7.63833441e-14,6.87330508 6.70438017,2.30926389e-14 14.9722314,2.30926389e-14 Z M5.6707438,22.0431356 C5.6377686,22.119661 5.5207438,22.1422881 5.41413223,22.0899153 C5.30553719,22.0398305 5.24454545,21.9358475 5.27975207,21.859322 C5.31198347,21.7807627 5.4292562,21.7591525 5.53760331,21.8112712 C5.64644628,21.8616102 5.70842975,21.9666102 5.6707438,22.0431356 Z M6.27719008,22.7366949 C6.20578512,22.8045763 6.06619835,22.7730508 5.9714876,22.6657627 C5.87355372,22.5587288 5.85520661,22.4155932 5.92760331,22.3466949 C6.00123967,22.2788136 6.13661157,22.3105932 6.23479339,22.4176271 C6.33272727,22.5259322 6.35181818,22.6680508 6.27719008,22.7366949 Z M6.86752066,23.6209322 C6.77578512,23.6862712 6.62578512,23.625 6.53305785,23.4884746 C6.44132231,23.3519492 6.44132231,23.1882203 6.53504132,23.1226271 C6.62801653,23.0570339 6.77578512,23.1160169 6.86975207,23.2515254 C6.96123967,23.3900847 6.96123967,23.5540678 6.86752066,23.6209322 Z M7.67628099,24.4751695 C7.59421488,24.5679661 7.41942149,24.5430508 7.2914876,24.4164407 C7.16057851,24.2926271 7.12413223,24.1169492 7.20644628,24.0241525 C7.28950413,23.9311017 7.46528926,23.9572881 7.59421488,24.0828814 C7.72413223,24.2064407 7.76380165,24.3833898 7.67628099,24.4751695 Z M8.79198347,24.9711864 C8.75578512,25.0914407 8.58743802,25.1461017 8.41785124,25.095 C8.2485124,25.0423729 8.13768595,24.9015254 8.17190083,24.78 C8.20710744,24.6589831 8.37619835,24.6020339 8.54702479,24.6566949 C8.7161157,24.7090678 8.82719008,24.8488983 8.79198347,24.9711864 Z M10.0172727,25.0632203 C10.0214876,25.1898305 9.87768595,25.2948305 9.69966942,25.2968644 C9.52066116,25.3011864 9.37586777,25.1987288 9.3738843,25.0741525 C9.3738843,24.9462712 9.51446281,24.8422881 9.69347107,24.8392373 C9.8714876,24.835678 10.0172727,24.9373729 10.0172727,25.0632203 Z M11.1575207,24.8641525 C11.178843,24.9877119 11.055124,25.1145763 10.8783471,25.1481356 C10.7045455,25.1809322 10.5436364,25.104661 10.5215702,24.9821186 C10.5,24.8555085 10.6259504,24.7286441 10.7995041,24.6958475 C10.9765289,24.664322 11.1349587,24.7385593 11.1575207,24.8641525 Z"/>
  </defs>
  <g fill="none" fill-rule="evenodd">
    <mask id="github-b" fill="#fff">
      <use xlink:href="#github-a"/>
    </mask>
    <use fill="#FFFFFE" xlink:href="#github-a"/>
    <g fill="#FFF" mask="url(#github-b)">
      <rect width="30" height="30"/>
    </g>
  </g>
</svg>
