<svg xmlns="http://www.w3.org/2000/svg" width="30" height="30" viewBox="0 0 30 30">
  <g fill="none" fill-rule="evenodd">
    <polygon fill="#E24329" fill-rule="nonzero" points="15.009 28.665 15.009 28.665 20.529 11.676 9.489 11.676"/>
    <polygon fill="#FC6D26" fill-rule="nonzero" points="15.009 28.665 9.489 11.676 1.753 11.676"/>
    <path fill="#FCA326" fill-rule="nonzero" d="M1.75264286,11.6763 L1.75264286,11.6763 L0.0752142857,16.8390143 C-0.0777857143,17.3098715 0.0897857143,17.8257285 0.490357143,18.1167285 L15.0087857,28.6650143 L1.75264286,11.6763 L1.75264286,11.6763 Z"/>
    <path fill="#E24329" fill-rule="nonzero" d="M1.75264286,11.6763143 L9.48878571,11.6763143 L6.16407143,1.44417143 C5.99307143,0.9176 5.24821429,0.917742857 5.07721429,1.44417143 L1.75264286,11.6763143 L1.75264286,11.6763143 Z"/>
    <polygon fill="#FC6D26" fill-rule="nonzero" points="15.009 28.665 20.529 11.676 28.265 11.676"/>
    <path fill="#FCA326" fill-rule="nonzero" d="M28.2649143,11.6763 L28.2649143,11.6763 L29.9423428,16.8390143 C30.0953428,17.3098715 29.9277715,17.8257285 29.5272,18.1167285 L15.0087715,28.6650143 L28.2649143,11.6763 L28.2649143,11.6763 Z"/>
    <path fill="#E24329" fill-rule="nonzero" d="M28.2649143,11.6763143 L20.5287715,11.6763143 L23.8534857,1.44417143 C24.0244857,0.9176 24.7693429,0.917742857 24.9403429,1.44417143 L28.2649143,11.6763143 L28.2649143,11.6763143 Z"/>
  </g>
</svg>
