<svg xmlns="http://www.w3.org/2000/svg" xmlns:xlink="http://www.w3.org/1999/xlink" width="40" height="40" viewBox="0 0 40 40">
  <defs>
    <path id="infinite-a" d="M20,16.1234244 C23.6444896,12.7078081 27.604828,11 31.881015,11 C36.3650066,11 40,15.0294373 40,20 C40,24.9705627 36.3650066,29 31.881015,29 C27.604828,29 23.6444896,27.2921919 20,23.8765756 C16.3555104,27.2921919 12.395172,29 8.11898496,29 C3.63499338,29 0,24.9705627 0,20 C0,15.0294373 3.63499338,11 8.11898496,11 C12.395172,11 16.3555104,12.7078081 20,16.1234244 L20,16.1234244 Z M8.89366718,23.3157895 C11.3854665,23.3157895 13.6333295,22.2105263 15.637256,20 C13.6333295,17.7894737 11.3854665,16.6842105 8.89366718,16.6842105 C6.92224303,16.6842105 5.324088,18.16874 5.324088,20 C5.324088,21.83126 6.92224303,23.3157895 8.89366718,23.3157895 Z M31.1063328,23.3157895 C33.077757,23.3157895 34.675912,21.83126 34.675912,20 C34.675912,18.16874 33.077757,16.6842105 31.1063328,16.6842105 C28.6145335,16.6842105 26.3666705,17.7894737 24.362744,20 C26.3666705,22.2105263 28.6145335,23.3157895 31.1063328,23.3157895 Z"/>
  </defs>
  <g fill="none" fill-rule="evenodd">
    <mask id="infinite-b" fill="#fff">
      <use xlink:href="#infinite-a"/>
    </mask>
    <g fill="#EF5777" mask="url(#infinite-b)">
      <rect width="40" height="40"/>
    </g>
  </g>
</svg>
