<svg xmlns="http://www.w3.org/2000/svg" xmlns:xlink="http://www.w3.org/1999/xlink" width="180" height="180" viewBox="0 0 180 180">
  <defs>
    <path id="a" d="M78.87 179.319a89.554 89.554 0 01-13.395-2.701c2.135-7.705 5.83-13.968 11.088-18.79a44.928 44.928 0 011.964 5.81c1.051 4.049 1.433 8.452 1.145 13.209-.262.798-.53 1.622-.802 2.472z"/>
    <path id="b" d="M53.82 172.432a89.759 89.759 0 01-11.614-6.157c.719-6.283.51-10.801-.625-13.556a19.05 19.05 0 013.706-1.648c10.315.865 19.014-.195 26.098-3.18.25.404.496.806.735 1.206-10.102 6.617-16.202 14.395-18.3 23.335z"/>
  </defs>
  <g fill="none" fill-rule="evenodd">
    <path fill="#1B1D23" d="M53.82 172.432c2.098-8.94 8.198-16.718 18.3-23.335 1.809 3.023 3.29 5.933 4.443 8.73-5.257 4.823-8.953 11.086-11.088 18.791a89.332 89.332 0 01-11.656-4.186zm-11.614-6.157a90.246 90.246 0 01-7.883-5.559c1.569-3.252 3.93-6.06 7.258-7.997 1.135 2.755 1.344 7.273.625 13.556zm36.664 13.044c.272-.85.54-1.674.802-2.472-.05.836-.122 1.684-.214 2.542a90.03 90.03 0 01-.588-.07zm-65.163-41.553C5.022 123.923 0 107.548 0 90 0 40.294 40.294 0 90 0s90 40.294 90 90c0 47.633-37.003 86.623-83.832 89.792-2.245-9.195-2.784-15.496-1.615-18.904 3.435 0 14.966-10.484 14.966-22.514s3.236-27.978 14.523-27.757c11.287.22 13.223 7.53 14.305 1.466-7.415-7.221-8.505-14.698-3.27-22.432 22.069-.718 33.103-9.552 33.103-26.5 0-14.113-6.573-21.637-12.895-26.158-7.427-5.31-13.826-5.793-19.198-1.447 1.044-2.69 3.825-4.436 8.343-5.238-2.767-3.623-7.7-5.513-13.021-2.708-5.321 2.805-4.37 14.698 5.321 14.698 9.692 0 11.451 4.996 12.739 8.114 1.287 3.118-1.288 12.739-12.739 12.739s-8.317-8.63-28.175-8.63c-9.106 0-24.464 8.63-24.464 18.974 0 7.04 2.797 10.569 10.462 11.573 7.665 1.003 10.794 4.91 9.568 8.181-5.03 13.421-21.264.754-22.82 11.216-5.508-10.56-1.37-26.89-1.79-24.779-52.163-2.9-64.6 30.93-66.485 39.329-1.257 5.598-1.257 11.024 0 16.277.238.831.465 1.656.681 2.474z"/>
    <use fill="#000" fill-opacity=".1" xlink:href="#a"/>
    <use fill="#000" fill-opacity=".1" xlink:href="#b"/>
  </g>
</svg>
